<svg xmlns="http://www.w3.org/2000/svg" version="1.1" xmlns:xlink="http://www.w3.org/1999/xlink" xmlns:svgjs="http://svgjs.dev/svgjs" width="1000" height="477" viewBox="0 0 1000 477"><g transform="matrix(1,0,0,1,-0.606060506057247,-0.48664487841102755)"><svg viewBox="0 0 396 189" data-background-color="#ffffff" preserveAspectRatio="xMidYMid meet" height="477" width="1000" xmlns="http://www.w3.org/2000/svg" xmlns:xlink="http://www.w3.org/1999/xlink"><g id="tight-bounds" transform="matrix(1,0,0,1,0.2400000396013411,0.19282590369247998)"><svg viewBox="0 0 395.52 188.61435000622478" height="188.61435000622478" width="395.52"><g><svg viewBox="0 0 395.52 188.61435000622478" height="188.61435000622478" width="395.52"><g><svg viewBox="0 0 395.52 188.61435000622478" height="188.61435000622478" width="395.52"><g><svg viewBox="0 0 395.52 188.61435000622478" height="188.61435000622478" width="395.52"><g><svg viewBox="0 0 395.52 101.72956772334294" height="101.72956772334294" width="395.52"><g transform="matrix(1,0,0,1,0,0)"><svg width="395.52" viewBox="4.949999809265137 -35.099998474121094 138.79000854492188 35.69999694824219" height="101.72956772334294" data-palette-color="#e65728"><path d="M16.2-34.9L16.2-34.9Q19.95-34.9 22.2-34.08 24.45-33.25 25.45-31.13 26.45-29 26.45-25.15L26.45-25.15Q26.45-22.15 25.8-20.23 25.15-18.3 23.75-17.32 22.35-16.35 20.1-16.05L20.1-16.05 20.1-15.8Q21-15.6 21.73-14.9 22.45-14.2 23.05-13.23 23.65-12.25 24.05-11L24.05-11 27.7 0 25.45 0 21.95-10.85Q21.15-13.25 19.83-14.23 18.5-15.2 16.55-15.2L16.55-15.2Q13.65-15.2 11.38-15.25 9.1-15.3 7.6-15.35 6.1-15.4 5.45-15.45L5.45-15.45 5.6-17.05 16.2-17.05Q19.2-17.1 20.98-17.8 22.75-18.5 23.55-20.23 24.35-21.95 24.35-25.1L24.35-25.1Q24.35-28.25 23.55-29.98 22.75-31.7 20.98-32.4 19.2-33.1 16.2-33.1L16.2-33.1Q12.3-33.1 9.47-33.05 6.65-33 5.65-32.95L5.65-32.95 4.95-34.5Q6.75-34.7 8.33-34.77 9.9-34.85 11.75-34.88 13.6-34.9 16.2-34.9ZM4.95-34.5L7-34.5 7 0 4.95 0 4.95-34.5ZM40.65-34.5L40.65-34.5Q43.1-34.5 45.57-34.5 48.05-34.5 50.5-34.45 52.95-34.4 55.35-34.3L55.35-34.3 55.25-32.75 41-32.75Q39.3-32.75 38.25-31.68 37.2-30.6 37.2-28.85L37.2-28.85 37.2-5.65Q37.2-3.9 38.25-2.83 39.3-1.75 41-1.75L41-1.75 55.25-1.75 55.35-0.2Q52.95-0.1 50.5-0.05 48.05 0 45.57 0 43.1 0 40.65 0L40.65 0Q38.2 0 36.67-1.5 35.15-3 35.15-5.3L35.15-5.3 35.15-29.2Q35.15-31.55 36.67-33.02 38.2-34.5 40.65-34.5ZM36-17.55L36-19.3 53.2-19.25 53.2-17.6 36-17.55ZM71.95-34.5L74.75-34.5Q75.09-34.5 75.32-34.35 75.55-34.2 75.65-33.85L75.65-33.85 87.7 0 85.55 0 75.05-30Q74.8-30.7 74.55-31.4 74.3-32.1 74.05-32.8L74.05-32.8 72.65-32.8Q72.4-32.1 72.15-31.4 71.9-30.7 71.65-30L71.65-30 61.15 0 59 0 71.05-33.85Q71.15-34.2 71.4-34.35 71.65-34.5 71.95-34.5L71.95-34.5ZM64.55-13.95L82.05-13.95 82.05-12.15 64.55-12.15 64.55-13.95ZM105.04-35.1L105.04-35.1Q107.14-35.1 108.62-35 110.09-34.9 111.34-34.7 112.59-34.5 113.94-34.2L113.94-34.2 113.59-32.7Q112.19-32.9 110.97-33.02 109.74-33.15 108.34-33.2 106.94-33.25 105.04-33.25L105.04-33.25Q101.04-33.25 98.69-31.73 96.34-30.2 95.29-26.7 94.24-23.2 94.24-17.25L94.24-17.25Q94.24-11.3 95.29-7.8 96.34-4.3 98.69-2.78 101.04-1.25 105.04-1.25L105.04-1.25Q108.09-1.25 110.19-1.4 112.29-1.55 114.29-1.9L114.29-1.9 114.64-0.35Q112.59 0.15 110.44 0.38 108.29 0.6 105.04 0.6L105.04 0.6Q100.29 0.6 97.44-1.13 94.59-2.85 93.34-6.75 92.09-10.65 92.09-17.25L92.09-17.25Q92.09-23.85 93.34-27.75 94.59-31.65 97.44-33.38 100.29-35.1 105.04-35.1ZM129.79-34.5L131.84-34.5 131.84 0 129.79 0 129.79-34.5ZM117.94-34.5L143.74-34.5 143.74-32.7 117.94-32.7 117.94-34.5Z" opacity="1" transform="matrix(1,0,0,1,0,0)" fill="#000000" class="undefined-text-0" data-fill-palette-color="primary" id="text-0"></path></svg></g></svg></g><g transform="matrix(1,0,0,1,0,125.74547715319885)"><svg viewBox="0 0 125.15639549472931 62.868872853025934" height="62.868872853025934" width="125.15639549472931"><g transform="matrix(1,0,0,1,0,0)"><svg width="125.15639549472931" viewBox="1.9500000476837158 -37.75 75.35000610351562 37.849998474121094" height="62.868872853025934" data-palette-color="#e65728"><path d="M21.35-10.75Q20.15-8 18.68-5.98 17.2-3.95 15.58-2.58 13.95-1.2 12.3-0.55 10.65 0.1 9.1 0.1L9.1 0.1Q7.55 0.1 6.28-0.6 5-1.3 4.05-2.7 3.1-4.1 2.53-6.15 1.95-8.2 1.95-10.95L1.95-10.95Q1.95-15.65 3.25-20.23 4.55-24.8 6.9-28.45 9.25-32.1 12.48-34.33 15.7-36.55 19.6-36.55L19.6-36.55Q20.8-36.55 21.9-36.05 23-35.55 23.8-34.65 24.6-33.75 25.08-32.45 25.55-31.15 25.55-29.55L25.55-29.55Q25.55-29.25 25.55-28.93 25.55-28.6 25.5-28.25L25.5-28.25 18.95-26.5Q18.35-27.75 17.55-27.75L17.55-27.75Q16.75-27.75 15.88-26.83 15-25.9 14.15-24.43 13.3-22.95 12.5-21.13 11.7-19.3 11.1-17.45 10.5-15.6 10.13-13.93 9.75-12.25 9.75-11.2L9.75-11.2Q9.75-9.6 10.18-8.95 10.6-8.3 11.3-8.3L11.3-8.3Q11.85-8.3 12.55-8.72 13.25-9.15 13.85-9.83 14.45-10.5 14.95-11.35 15.45-12.2 15.65-13.05L15.65-13.05 21.35-10.75ZM29-2.05L20.9 0.05Q22.25-6.6 23.5-12.95L23.5-12.95Q23.95-15.65 24.5-18.57 25.05-21.5 25.52-24.38 26-27.25 26.42-29.93 26.85-32.6 27.1-34.8L27.1-34.8Q29.95-35.7 33.25-36.13 36.55-36.55 39.8-36.55L39.8-36.55Q41.75-36.55 43.02-36.1 44.3-35.65 45.02-34.83 45.75-34 46.05-32.9 46.35-31.8 46.35-30.45L46.35-30.45Q46.35-28.45 45.65-26.53 44.95-24.6 43.77-22.88 42.6-21.15 41.07-19.73 39.55-18.3 37.8-17.4L37.8-17.4Q38.7-15.4 39.72-13.03 40.75-10.65 41.65-8.5L41.65-8.5Q42.65-6 43.7-3.5L43.7-3.5 35.95-0.8Q34.95-4 34.15-6.8L34.15-6.8Q33.8-7.95 33.45-9.18 33.1-10.4 32.8-11.5 32.5-12.6 32.3-13.48 32.1-14.35 32.05-14.9L32.05-14.9 31.4-14.7Q31.1-13.1 30.67-10.95 30.25-8.8 29.9-6.8L29.9-6.8Q29.45-4.45 29-2.05L29-2.05ZM34.25-29.6L32.65-21.65Q33.6-21.75 34.97-22.45 36.35-23.15 37.6-24.13 38.85-25.1 39.75-26.15 40.65-27.2 40.65-28L40.65-28Q40.65-28.55 40.3-28.88 39.95-29.2 39.32-29.38 38.7-29.55 37.95-29.6 37.2-29.65 36.4-29.65L36.4-29.65Q35.85-29.65 35.27-29.63 34.7-29.6 34.25-29.6L34.25-29.6ZM49.65-0.85L41.4-0.3Q43.6-6.95 45.6-13.35L45.6-13.35Q46.45-16.05 47.35-19 48.25-21.95 49.15-24.85 50.05-27.75 50.82-30.45 51.6-33.15 52.2-35.45L52.2-35.45Q54.95-35.45 57.4-35.75 59.85-36.05 62.7-36.3L62.7-36.3Q62.55-35.2 62.37-33.83 62.2-32.45 61.97-30.95 61.75-29.45 61.5-27.85 61.25-26.25 60.9-23.75 60.55-21.25 59.95-17.5L59.95-17.5 60.6-17.5Q62.05-21.3 63-23.83 63.95-26.35 64.55-27.95 65.15-29.55 65.77-31.08 66.4-32.6 66.97-33.98 67.55-35.35 68.05-36.4L68.05-36.4Q69.3-36.5 70.4-36.65 71.5-36.8 72.6-36.98 73.7-37.15 74.82-37.33 75.95-37.5 77.3-37.75L77.3-37.75Q76.8-34.85 76.35-31.8 75.9-28.75 75.55-25.73 75.2-22.7 74.87-19.75 74.55-16.8 74.3-14.15L74.3-14.15Q73.7-7.95 73.25-2.05L73.25-2.05 64.55-0.5Q64.55-0.75 64.62-1.85 64.7-2.95 64.82-4.55 64.95-6.15 65.17-8.1 65.4-10.05 65.62-12 65.85-13.95 66.1-15.78 66.35-17.6 66.6-18.9L66.6-18.9 66.15-18.9Q65.45-16.8 64.6-14.48 63.75-12.15 62.87-9.75 62-7.35 61.15-5.05 60.3-2.75 59.65-0.65L59.65-0.65Q57.9-0.6 56.65-0.53 55.4-0.45 53.75-0.35L53.75-0.35 55.35-18.9 54.6-18.9Q54.5-18.25 54.1-16.73 53.7-15.2 53.17-13.23 52.65-11.25 52.05-9.13 51.45-7 50.92-5.18 50.4-3.35 50.05-2.18 49.7-1 49.65-0.85L49.65-0.85Z" opacity="1" transform="matrix(1,0,0,1,0,0)" fill="#000000" class="undefined-text-1" data-fill-palette-color="secondary" id="text-1"></path></svg></g></svg></g></svg></g></svg></g></svg></g><defs></defs></svg><rect width="395.52" height="188.61435000622478" fill="none" stroke="none" visibility="hidden"></rect></g></svg></g></svg>